<svg width="768" height="400" viewBox="0 0 768 400" fill="none" xmlns="http://www.w3.org/2000/svg">
<rect width="768" height="400" rx="48" fill="#C5EEDF"/>
<path opacity="0.17" fill-rule="evenodd" clip-rule="evenodd" d="M381.076 47.7784C421.154 44.9833 461.41 30.0759 499.389 40.8745C539.378 52.2442 569.265 79.599 593.182 108.086C618.263 137.959 647.776 172.313 639.615 207.894C631.391 243.755 651.07 275.283 622.093 303.089C598.859 325.385 517.764 342.445 485.702 355.592C453.992 368.595 416.405 361.107 381.076 358.289C348.626 355.7 317.637 350.213 287.644 339.789C254.523 328.279 222.662 315.183 197.239 294.4C166.675 269.413 121.865 242.991 126.306 207.894C130.878 171.769 190.173 159.538 217.904 131.112C240.531 107.919 243.096 72.334 273.903 56.6004C304.857 40.7921 344.681 50.3167 381.076 47.7784Z" fill="#FBFBFB"/>
<path d="M385.531 100.232C385.531 100.681 385.168 101.045 384.719 101.045C384.27 101.045 383.906 100.681 383.906 100.232C383.906 99.7818 384.27 99.418 384.719 99.418C385.168 99.418 385.531 99.7818 385.531 100.232Z" fill="#E2E2E2"/>
<path d="M299.395 239.371H471.668V242.791C471.668 243.599 470.992 244.253 470.161 244.253H301.551C300.361 244.253 299.395 243.316 299.395 242.162V239.371Z" fill="#F6F6F6"/>
<path d="M282.577 96.1641H487.673C490.053 96.1641 491.984 98.0958 491.984 100.477V233.813C491.984 238.229 488.401 241.813 483.987 241.813H286.263C281.849 241.813 278.267 238.229 278.267 233.813V100.477C278.267 98.0958 280.198 96.1641 282.577 96.1641Z" fill="#F6F6F6"/>
<path d="M485.482 234.7V104.092C485.482 103.759 485.213 103.488 484.88 103.488L285.369 103.488C285.037 103.488 284.767 103.759 284.767 104.092V234.7C284.767 235.034 285.037 235.304 285.369 235.304H484.88C485.213 235.304 485.482 235.034 485.482 234.7Z" fill="white"/>
<path d="M535.051 292.22V291.094L231.948 290.633V292.222C231.948 295.838 235.507 298.77 239.897 298.77H527.103C531.493 298.77 535.052 295.839 535.052 292.222L535.051 292.22Z" fill="#F6F6F6"/>
<path d="M531.796 292.262H235.202C231.941 292.262 230.981 290.713 233.008 288.849L280.332 245.299C281.631 244.103 283.325 243.441 285.082 243.441H481.918C483.675 243.441 485.369 244.105 486.668 245.299L533.992 288.849C536.019 290.713 535.059 292.262 531.798 292.262H531.796Z" fill="white"/>
<g opacity="0.3">
<path d="M301.609 250.766H288.7C288.146 250.766 287.874 250.584 288.095 250.361L290.543 247.894C290.753 247.684 291.361 247.512 291.898 247.512H304.378C304.915 247.512 305.208 247.684 305.032 247.894L302.959 250.361C302.772 250.584 302.165 250.766 301.609 250.766Z" fill="#EBEAEA"/>
<path d="M317.616 250.766H304.982C304.44 250.766 304.143 250.584 304.323 250.361L306.311 247.894C306.481 247.684 307.048 247.512 307.573 247.512H319.787C320.313 247.512 320.628 247.684 320.491 247.894L318.87 250.361C318.724 250.584 318.16 250.766 317.616 250.766Z" fill="#EBEAEA"/>
<path d="M334.289 250.766H321.304C320.747 250.766 320.41 250.584 320.557 250.361L322.183 247.894C322.321 247.684 322.877 247.512 323.415 247.512H335.969C336.509 247.512 336.863 247.684 336.756 247.894L335.509 250.361C335.397 250.584 334.848 250.766 334.289 250.766Z" fill="#EBEAEA"/>
<path d="M366.966 250.766H353.924C353.364 250.766 352.964 250.584 353.035 250.361L353.828 247.894C353.896 247.684 354.395 247.512 354.935 247.512H367.544C368.087 247.512 368.501 247.684 368.464 247.894L368.052 250.361C368.014 250.584 367.525 250.766 366.966 250.766Z" fill="#EBEAEA"/>
<path d="M350.273 250.766H337.59C337.046 250.766 336.687 250.584 336.794 250.361L337.973 247.894C338.074 247.684 338.586 247.512 339.113 247.512H351.374C351.901 247.512 352.275 247.684 352.206 247.894L351.396 250.361C351.324 250.584 350.817 250.766 350.273 250.766Z" fill="#EBEAEA"/>
<path d="M399.233 250.766H386.573C386.03 250.766 385.581 250.584 385.577 250.361L385.532 247.894C385.528 247.684 385.956 247.512 386.48 247.512H398.72C399.247 247.512 399.706 247.684 399.741 247.894L400.156 250.361C400.193 250.584 399.78 250.766 399.237 250.766H399.233Z" fill="#EBEAEA"/>
<path d="M416.337 250.766H403.343C402.786 250.766 402.294 250.584 402.252 250.361L401.786 247.894C401.747 247.684 402.156 247.512 402.696 247.512H415.259C415.799 247.512 416.298 247.684 416.37 247.894L417.214 250.361C417.29 250.584 416.896 250.766 416.339 250.766H416.337Z" fill="#EBEAEA"/>
<path d="M431.857 250.766H419.222C418.68 250.766 418.171 250.584 418.094 250.361L417.233 247.894C417.159 247.684 417.528 247.512 418.054 247.512H430.27C430.795 247.512 431.309 247.684 431.414 247.894L432.643 250.361C432.754 250.584 432.401 250.766 431.857 250.766Z" fill="#EBEAEA"/>
<path d="M448.956 250.766H436.017C435.462 250.766 434.91 250.584 434.793 250.361L433.496 247.894C433.386 247.684 433.735 247.512 434.271 247.512H446.78C447.318 247.512 447.873 247.684 448.016 247.894L449.691 250.361C449.842 250.584 449.512 250.766 448.956 250.766Z" fill="#EBEAEA"/>
<path d="M478.838 250.766H452.259C451.482 250.766 450.668 250.511 450.452 250.197L448.965 248.05C448.76 247.753 449.208 247.512 449.959 247.512H475.655C476.406 247.512 477.26 247.753 477.554 248.05L479.687 250.197C479.996 250.509 479.615 250.766 478.838 250.766Z" fill="#EBEAEA"/>
<path d="M382.916 250.766H370.214C369.669 250.766 369.249 250.584 369.281 250.361L369.644 247.894C369.674 247.684 370.131 247.512 370.659 247.512H382.94C383.468 247.512 383.9 247.684 383.9 247.894L383.906 250.361C383.906 250.584 383.461 250.766 382.916 250.766Z" fill="#EBEAEA"/>
<path d="M469.708 255.65H483.158C483.737 255.65 484.011 255.421 483.771 255.142L481.114 252.06C480.888 251.796 480.247 251.582 479.69 251.582H466.705C466.147 251.582 465.846 251.796 466.039 252.06L468.289 255.142C468.491 255.421 469.131 255.65 469.71 255.65H469.708Z" fill="#EBEAEA"/>
<path d="M452.855 255.65H466.06C466.628 255.65 466.929 255.421 466.734 255.142L464.567 252.06C464.382 251.796 463.784 251.582 463.236 251.582H450.488C449.94 251.582 449.615 251.796 449.765 252.06L451.531 255.142C451.691 255.421 452.286 255.65 452.854 255.65H452.855Z" fill="#EBEAEA"/>
<path d="M436.143 255.65H449.732C450.316 255.65 450.661 255.421 450.501 255.142L448.728 252.06C448.577 251.796 447.993 251.582 447.429 251.582H434.31C433.747 251.582 433.381 251.796 433.497 252.06L434.86 255.142C434.983 255.421 435.562 255.65 436.145 255.65H436.143Z" fill="#EBEAEA"/>
<path d="M401.682 255.65H414.708C415.268 255.65 415.664 255.421 415.589 255.142L414.762 252.06C414.69 251.796 414.191 251.582 413.651 251.582H401.075C400.535 251.582 400.123 251.796 400.161 252.06L400.595 255.142C400.635 255.421 401.124 255.65 401.684 255.65H401.682Z" fill="#EBEAEA"/>
<path d="M418.497 255.65H431.815C432.387 255.65 432.758 255.421 432.642 255.142L431.349 252.06C431.239 251.796 430.697 251.582 430.144 251.582H417.287C416.735 251.582 416.346 251.796 416.42 252.06L417.309 255.142C417.389 255.421 417.924 255.65 418.495 255.65H418.497Z" fill="#EBEAEA"/>
<path d="M367.815 255.65H381.184C381.759 255.65 382.232 255.421 382.235 255.142L382.281 252.06C382.285 251.796 381.834 251.582 381.28 251.582H368.373C367.819 251.582 367.334 251.796 367.295 252.06L366.844 255.142C366.804 255.421 367.24 255.65 367.815 255.65Z" fill="#EBEAEA"/>
<path d="M350.657 255.65H363.641C364.2 255.65 364.69 255.421 364.735 255.142L365.214 252.06C365.255 251.796 364.847 251.582 364.309 251.582H351.774C351.235 251.582 350.735 251.796 350.66 252.06L349.787 255.142C349.708 255.421 350.1 255.65 350.657 255.65Z" fill="#EBEAEA"/>
<path d="M333.55 255.65H346.827C347.398 255.65 347.934 255.421 348.019 255.142L348.954 252.06C349.033 251.796 348.647 251.582 348.098 251.582H335.28C334.729 251.582 334.185 251.796 334.072 252.06L332.735 255.142C332.615 255.421 332.98 255.65 333.551 255.65H333.55Z" fill="#EBEAEA"/>
<path d="M316.449 255.65H329.993C330.575 255.65 331.154 255.421 331.282 255.142L332.689 252.06C332.808 251.796 332.447 251.582 331.885 251.582H318.809C318.248 251.582 317.662 251.796 317.506 252.06L315.688 255.142C315.524 255.421 315.865 255.65 316.447 255.65H316.449Z" fill="#EBEAEA"/>
<path d="M284.923 255.65H312.149C312.945 255.65 313.785 255.328 314.014 254.939L315.592 252.253C315.81 251.884 315.358 251.582 314.589 251.582H288.304C287.535 251.582 286.652 251.884 286.339 252.253L284.074 254.939C283.744 255.33 284.125 255.65 284.921 255.65H284.923Z" fill="#EBEAEA"/>
<path d="M384.953 255.65H398.363C398.94 255.65 399.38 255.421 399.344 255.142L398.94 252.06C398.906 251.796 398.423 251.582 397.867 251.582H384.921C384.365 251.582 383.91 251.796 383.91 252.06L383.906 255.142C383.906 255.421 384.377 255.65 384.953 255.65Z" fill="#EBEAEA"/>
<path d="M456.243 259.716H486.976C487.768 259.716 488.135 259.429 487.792 259.079L485.81 257.064C485.482 256.731 484.586 256.461 483.817 256.461H454.031C453.262 256.461 452.814 256.732 453.035 257.064L454.377 259.079C454.609 259.428 455.45 259.716 456.243 259.716Z" fill="#EBEAEA"/>
<path d="M437.957 259.717H452.144C452.753 259.717 453.108 259.488 452.934 259.208L451.005 256.125C450.84 255.863 450.227 255.648 449.639 255.648H435.964C435.377 255.648 434.998 255.862 435.125 256.125L436.606 259.208C436.74 259.488 437.349 259.717 437.958 259.717H437.957Z" fill="#EBEAEA"/>
<path d="M473.222 259.717H487.205C487.806 259.717 488.083 259.488 487.823 259.208L484.947 256.125C484.702 255.863 484.028 255.648 483.449 255.648H469.971C469.393 255.648 469.088 255.862 469.295 256.125L471.73 259.208C471.951 259.488 472.623 259.717 473.224 259.717H473.222Z" fill="#EBEAEA"/>
<path d="M402.595 259.717H416.293C416.881 259.717 417.295 259.488 417.213 259.208L416.306 256.125C416.229 255.863 415.703 255.648 415.135 255.648H401.931C401.364 255.648 400.934 255.862 400.974 256.125L401.448 259.208C401.492 259.488 402.008 259.717 402.596 259.717H402.595Z" fill="#EBEAEA"/>
<path d="M420.265 259.717H434.219C434.819 259.717 435.205 259.488 435.076 259.208L433.666 256.125C433.546 255.863 432.976 255.648 432.397 255.648H418.947C418.37 255.648 417.963 255.862 418.047 256.125L419.017 259.208C419.104 259.488 419.668 259.717 420.267 259.717H420.265Z" fill="#EBEAEA"/>
<path d="M440.593 264.6H455.371C456.006 264.6 456.368 264.37 456.179 264.091L454.084 261.008C453.906 260.745 453.262 260.531 452.651 260.531H438.429C437.818 260.531 437.43 260.745 437.567 261.008L439.175 264.091C439.32 264.37 439.959 264.6 440.594 264.6H440.593Z" fill="#EBEAEA"/>
<path d="M477.567 264.6H492.068C492.691 264.6 492.968 264.37 492.686 264.091L489.576 261.008C489.311 260.745 488.606 260.531 488.006 260.531H474.05C473.451 260.531 473.143 260.745 473.367 261.008L476 264.091C476.238 264.37 476.945 264.6 477.567 264.6Z" fill="#EBEAEA"/>
<path d="M457.111 262.159H471.98C472.375 262.159 472.579 262.021 472.434 261.853L471.542 260.829C471.4 260.665 470.964 260.531 470.574 260.531H455.944C455.553 260.531 455.33 260.665 455.447 260.829L456.175 261.853C456.293 262.021 456.716 262.159 457.111 262.159Z" fill="#EBEAEA"/>
<path d="M458.84 264.6H474.398C474.813 264.6 475.024 264.462 474.866 264.295L473.912 263.269C473.76 263.106 473.301 262.973 472.893 262.973H457.59C457.182 262.973 456.95 263.106 457.075 263.269L457.853 264.295C457.981 264.462 458.423 264.6 458.838 264.6H458.84Z" fill="#EBEAEA"/>
<path d="M422.043 264.6H436.626C437.253 264.6 437.651 264.37 437.511 264.091L435.973 261.008C435.841 260.745 435.242 260.531 434.64 260.531H420.606C420.003 260.531 419.583 260.745 419.673 261.008L420.731 264.091C420.827 264.37 421.418 264.6 422.045 264.6H422.043Z" fill="#EBEAEA"/>
<path d="M367.048 259.717H381.124C381.728 259.717 382.226 259.488 382.231 259.208L382.281 256.125C382.284 255.863 381.813 255.648 381.229 255.648H367.661C367.079 255.648 366.567 255.862 366.526 256.125L366.032 259.208C365.987 259.488 366.445 259.717 367.05 259.717H367.048Z" fill="#EBEAEA"/>
<path d="M349.07 259.717H362.723C363.309 259.717 363.827 259.488 363.876 259.208L364.4 256.125C364.445 255.863 364.019 255.648 363.453 255.648H350.293C349.728 255.648 349.199 255.862 349.119 256.125L348.163 259.208C348.076 259.488 348.485 259.717 349.072 259.717H349.07Z" fill="#EBEAEA"/>
<path d="M333.174 264.6H416.6C418.029 264.6 419.028 264.072 418.822 263.434L418.239 261.634C418.043 261.025 416.757 260.531 415.381 260.531H335.086C333.709 260.531 332.341 261.025 332.039 261.634L331.149 263.434C330.834 264.072 331.743 264.6 333.172 264.6H333.174Z" fill="#EBEAEA"/>
<path d="M331.957 259.717H345.866C346.463 259.717 347.028 259.488 347.12 259.208L348.139 256.125C348.226 255.863 347.826 255.648 347.249 255.648H333.842C333.267 255.648 332.694 255.862 332.571 256.125L331.112 259.208C330.981 259.488 331.361 259.717 331.958 259.717H331.957Z" fill="#EBEAEA"/>
<path d="M314.031 259.717H328.174C328.781 259.717 329.392 259.488 329.531 259.208L331.061 256.125C331.19 255.863 330.818 255.648 330.232 255.648H316.599C316.014 255.648 315.398 255.862 315.23 256.125L313.256 259.208C313.077 259.488 313.427 259.717 314.034 259.717H314.031Z" fill="#EBEAEA"/>
<path d="M312.441 264.6H327.218C327.854 264.6 328.492 264.37 328.638 264.091L330.246 261.008C330.383 260.745 329.995 260.531 329.384 260.531H315.162C314.551 260.531 313.907 260.745 313.729 261.008L311.634 264.091C311.444 264.37 311.807 264.6 312.443 264.6H312.441Z" fill="#EBEAEA"/>
<path d="M294.479 264.6H308.806C309.422 264.6 310.08 264.37 310.268 264.091L312.35 261.008C312.526 260.745 312.187 260.531 311.594 260.531H297.806C297.213 260.531 296.552 260.745 296.335 261.008L293.782 264.091C293.551 264.37 293.865 264.6 294.481 264.6H294.479Z" fill="#EBEAEA"/>
<path d="M275.745 264.6H290.246C290.869 264.6 291.574 264.37 291.812 264.091L294.445 261.008C294.67 260.745 294.362 260.531 293.763 260.531H279.807C279.207 260.531 278.502 260.745 278.237 261.008L275.126 264.091C274.844 264.37 275.123 264.6 275.745 264.6Z" fill="#EBEAEA"/>
<path d="M280.887 259.717H309.445C310.28 259.717 311.17 259.395 311.422 259.004L313.147 256.319C313.384 255.949 312.918 255.648 312.113 255.648H284.584C283.779 255.648 282.842 255.949 282.502 256.319L280.027 259.004C279.666 259.395 280.054 259.717 280.889 259.717H280.887Z" fill="#EBEAEA"/>
<path d="M385.007 259.717H399.126C399.733 259.717 400.196 259.488 400.156 259.208L399.714 256.125C399.676 255.863 399.168 255.648 398.582 255.648H384.972C384.388 255.648 383.91 255.862 383.91 256.125L383.906 259.208C383.906 259.488 384.402 259.717 385.009 259.717H385.007Z" fill="#EBEAEA"/>
</g>
<path opacity="0.3" d="M439.472 288.194H318.39C313.977 288.194 311.449 286.149 312.729 283.733L319.312 271.295C320.328 269.376 324.211 267.852 327.969 267.852H431.119C434.877 267.852 438.669 269.377 439.569 271.295L445.403 283.733C446.537 286.149 443.885 288.194 439.472 288.194Z" fill="#EBEAEA"/>
<path d="M385.837 150.73C385.837 151.834 384.941 152.729 383.837 152.729L366.719 152.729C365.614 152.729 364.719 153.625 364.719 154.729L364.719 181.616C364.719 182.721 365.614 183.616 366.719 183.616L383.837 183.616C384.941 183.616 385.837 184.512 385.837 185.616L385.837 191.59C385.837 193.454 388.162 194.304 389.365 192.88L409.136 169.463C409.765 168.718 409.765 167.628 409.136 166.883L389.365 143.466C388.162 142.042 385.837 142.892 385.837 144.756L385.837 150.73Z" fill="#1D1D1D"/>
<path d="M207.75 196.801C208.513 192.83 205.915 188.995 201.948 188.237C197.98 187.479 194.145 190.083 193.382 194.055C192.619 198.026 195.216 201.861 199.184 202.619C203.151 203.378 206.986 200.773 207.75 196.801Z" fill="#BB0026" stroke="#BB0026"/>
<path d="M333.88 196.659C334.812 192.724 332.379 188.783 328.447 187.858C324.515 186.932 320.573 189.372 319.641 193.308C318.71 197.243 321.143 201.184 325.075 202.109C329.006 203.035 332.949 200.595 333.88 196.659Z" fill="#BB0026" stroke="#BB0026" stroke-width="0.3"/>
<path d="M201.126 224.884V85.6615C201.126 81.7468 204.311 78.5664 208.249 78.5664H292.03L325.893 112.314V224.884C325.893 228.799 322.708 231.979 318.77 231.979H208.249C204.312 231.979 201.126 228.8 201.126 224.884Z" fill="white" stroke="#D2294B" stroke-width="2"/>
<rect x="220.441" y="167.07" width="85.3243" height="39.0566" rx="6" fill="#D2294B"/>
<path d="M241.503 194.598V178.598H248.769C250.544 178.598 251.913 179.052 252.876 179.959C253.839 180.852 254.32 182.1 254.32 183.704C254.32 185.308 253.839 186.564 252.876 187.471C251.913 188.379 250.544 188.833 248.769 188.833H245.001V194.598H241.503ZM245.001 186.11H248.183C250.033 186.11 250.958 185.308 250.958 183.704C250.958 182.131 250.033 181.344 248.183 181.344H245.001V186.11Z" fill="white"/>
<path d="M256.488 194.598V178.598H262.716C265.424 178.598 267.522 179.294 269.011 180.686C270.501 182.062 271.245 184.029 271.245 186.586C271.245 189.143 270.501 191.118 269.011 192.51C267.522 193.902 265.424 194.598 262.716 194.598H256.488ZM259.985 191.715H262.513C265.897 191.715 267.59 190.006 267.59 186.586C267.59 183.182 265.897 181.48 262.513 181.48H259.985V191.715Z" fill="white"/>
<path d="M273.963 194.598V178.598H284.703V181.344H277.46V185.247H284.207V187.993H277.46V194.598H273.963Z" fill="white"/>
<g opacity="0.3">
<path d="M289.951 118.25H237.068C235.964 118.25 235.068 119.145 235.068 120.25V124.387C235.068 125.491 235.964 126.387 237.068 126.387H289.951C291.056 126.387 291.951 125.491 291.951 124.387V120.25C291.951 119.145 291.056 118.25 289.951 118.25Z" fill="#D2294B"/>
<path d="M289.951 132.895H237.068C235.964 132.895 235.068 133.79 235.068 134.895V139.031C235.068 140.136 235.964 141.031 237.068 141.031H289.951C291.056 141.031 291.951 140.136 291.951 139.031V134.895C291.951 133.79 291.056 132.895 289.951 132.895Z" fill="#D2294B"/>
<path d="M289.951 147.543H237.068C235.964 147.543 235.068 148.438 235.068 149.543V153.68C235.068 154.784 235.964 155.68 237.068 155.68H289.951C291.056 155.68 291.951 154.784 291.951 153.68V149.543C291.951 148.438 291.056 147.543 289.951 147.543Z" fill="#D2294B"/>
</g>
<path d="M293.764 103.95V79.9829L324.481 110.741H300.545C296.802 110.741 293.764 107.703 293.764 103.95Z" fill="white" stroke="#D2294B" stroke-width="2"/>
<g filter="url(#filter0_d_4567_49958)">
<path d="M326.859 203.729H200.16C196.102 203.729 192.812 200.431 192.812 196.363V235.377C192.812 239.445 196.102 242.743 200.16 242.743H326.859C330.917 242.743 334.207 239.445 334.207 235.377V196.363C334.207 200.431 330.917 203.729 326.859 203.729Z" fill="#D2294B"/>
</g>
<path d="M446.771 216.235C447.535 212.263 444.934 208.429 440.961 207.67C436.988 206.912 433.148 209.517 432.384 213.488C431.62 217.46 434.221 221.294 438.193 222.053C442.166 222.811 446.006 220.206 446.771 216.235Z" fill="#2A7148" stroke="#2A7148"/>
<path d="M573.07 217.722C574.002 213.786 571.566 209.846 567.629 208.92C563.692 207.995 559.744 210.435 558.812 214.37C557.879 218.306 560.315 222.246 564.252 223.172C568.189 224.097 572.137 221.657 573.07 217.722Z" fill="#2A7148" stroke="#2A7148" stroke-width="0.3"/>
<path d="M440.137 244.32V105.095C440.137 101.182 443.325 98 447.27 98H531.164L565.073 131.749V244.32C565.073 248.234 561.884 251.416 557.939 251.416H447.27C443.327 251.416 440.137 248.236 440.137 244.32Z" fill="white" stroke="#449968" stroke-width="2"/>
<rect x="453.783" y="186.508" width="97.6434" height="39.0573" rx="6" fill="#449968"/>
<path d="M468.604 213.793V198.277H479.455V200.94H471.929V204.572H478.961V207.257H471.929V211.13H479.455V213.793H468.604Z" fill="white"/>
<path d="M480.209 213.793L486.252 205.936L480.388 198.277H484.432L488.251 203.449L492.048 198.277H496.114L490.228 205.936L496.271 213.793H492.205L488.229 208.445L484.297 213.793H480.209Z" fill="white"/>
<path d="M504.545 214.035C502.837 214.035 501.377 213.705 500.164 213.045C498.951 212.385 498.015 211.46 497.356 210.272C496.712 209.069 496.39 207.653 496.39 206.024C496.39 204.41 496.712 203.009 497.356 201.821C498.015 200.617 498.951 199.686 500.164 199.026C501.377 198.365 502.837 198.035 504.545 198.035C505.593 198.035 506.596 198.197 507.555 198.519C508.514 198.842 509.3 199.282 509.914 199.84L508.836 202.547C508.162 202.033 507.48 201.659 506.791 201.424C506.117 201.175 505.406 201.05 504.657 201.05C503.144 201.05 501.999 201.483 501.22 202.349C500.456 203.2 500.074 204.425 500.074 206.024C500.074 207.623 500.456 208.856 501.22 209.722C501.999 210.587 503.144 211.02 504.657 211.02C505.406 211.02 506.117 210.903 506.791 210.668C507.48 210.418 508.162 210.037 508.836 209.523L509.914 212.23C509.3 212.773 508.514 213.214 507.555 213.551C506.596 213.874 505.593 214.035 504.545 214.035Z" fill="white"/>
<path d="M512.197 213.793V198.277H523.047V200.94H515.522V204.572H522.553V207.257H515.522V211.13H523.047V213.793H512.197Z" fill="white"/>
<path d="M525.799 213.793V198.277H529.281V210.91H536.604V213.793H525.799Z" fill="white"/>
<g opacity="0.3">
<path d="M529.085 137.688H476.126C475.021 137.688 474.126 138.583 474.126 139.687V143.824C474.126 144.929 475.021 145.824 476.126 145.824H529.085C530.189 145.824 531.085 144.929 531.085 143.824V139.688C531.085 138.583 530.189 137.688 529.085 137.688Z" fill="#449968"/>
<path d="M474.126 139.687L474.126 173.117C474.126 174.222 475.021 175.117 476.126 175.117L480.263 175.117C481.367 175.117 482.263 174.222 482.263 173.117L482.263 139.687C482.263 138.583 481.367 137.687 480.263 137.687L476.126 137.687C475.021 137.687 474.126 138.583 474.126 139.687Z" fill="#449968"/>
<path d="M529.085 152.336H476.126C475.021 152.336 474.126 153.231 474.126 154.336V158.473C474.126 159.577 475.021 160.473 476.126 160.473H529.085C530.189 160.473 531.085 159.577 531.085 158.473V154.336C531.085 153.231 530.189 152.336 529.085 152.336Z" fill="#449968"/>
<path d="M529.898 166.98H476.939C475.835 166.98 474.939 167.876 474.939 168.98V173.117C474.939 174.222 475.835 175.117 476.939 175.117H529.898C531.003 175.117 531.898 174.222 531.898 173.117V168.98C531.898 167.876 531.003 166.98 529.898 166.98Z" fill="#449968"/>
<path d="M499.351 139.687L499.351 173.117C499.351 174.222 500.246 175.117 501.351 175.117L505.488 175.117C506.592 175.117 507.488 174.222 507.488 173.117L507.488 139.687C507.488 138.583 506.592 137.687 505.488 137.687L501.351 137.687C500.246 137.687 499.351 138.583 499.351 139.687Z" fill="#449968"/>
<path d="M523.762 139.687L523.762 173.117C523.762 174.222 524.657 175.117 525.762 175.117L529.899 175.117C531.003 175.117 531.899 174.222 531.899 173.117L531.899 139.687C531.899 138.583 531.003 137.687 529.899 137.687L525.762 137.687C524.657 137.687 523.762 138.583 523.762 139.687Z" fill="#449968"/>
</g>
<path d="M532.898 123.384V99.4142L563.659 130.175H539.69C535.94 130.175 532.898 127.135 532.898 123.384Z" fill="white" stroke="#449968" stroke-width="2"/>
<g filter="url(#filter1_d_4567_49958)">
<path d="M566.039 223.166H439.171C435.108 223.166 431.813 219.869 431.813 215.801V254.816C431.813 258.884 435.108 262.181 439.171 262.181H566.039C570.102 262.181 573.396 258.884 573.396 254.816V215.801C573.396 219.869 570.102 223.166 566.039 223.166Z" fill="#449968"/>
</g>
<g clip-path="url(#clip0_4567_49958)">
<path d="M86.2394 314.593L76.1635 314.593C74.9544 329.694 80.6983 333.98 85.2318 333.98L96.3154 335L107.902 334.49C110.085 334.32 115.055 333.47 117.474 331.429C119.892 329.388 120.832 320.375 121 316.123L120.497 314.594C114.854 312.961 109.917 315.103 108.406 316.123L102.36 322.245C100.177 322.415 95.4081 322.653 93.7961 322.245C92.184 321.837 89.2622 317.144 86.2394 314.593Z" fill="white"/>
<path d="M99 290L99 308M99 308L106 301.25M99 308L92 301.25" stroke="white" stroke-width="1.18987" stroke-linecap="round" stroke-linejoin="round"/>
<path d="M76 315H83.1106C85.1472 315 86.1655 315 87.0606 315.418C87.9558 315.836 88.6185 316.622 89.9439 318.193L91.3061 319.807C92.6315 321.378 93.2942 322.164 94.1894 322.582C95.0845 323 96.1028 323 98.1394 323H98.8606C100.897 323 101.916 323 102.811 322.582C103.706 322.164 104.368 321.378 105.694 319.807L107.056 318.193C108.382 316.622 109.044 315.836 109.939 315.418C110.834 315 111.853 315 113.889 315H121" stroke="white" stroke-width="1.18987" stroke-linecap="round"/>
<path d="M109.75 290C113.407 290.362 115.868 291.18 117.705 293.029C121 296.345 121 301.682 121 312.356C121 323.031 121 328.368 117.705 331.684C114.41 335 109.107 335 98.5 335C87.8934 335 82.5901 335 79.295 331.684C76 328.368 76 323.031 76 312.356C76 301.682 76 296.345 79.295 293.029C81.1321 291.18 83.5934 290.362 87.25 290" stroke="white" stroke-width="1.18987" stroke-linecap="round"/>
</g>
<path d="M695.499 63.1641H685.916" stroke="white" stroke-width="1.5" stroke-linecap="round"/>
<path d="M680.166 49.75H692.624C693.514 49.75 693.96 49.75 694.333 49.7992C696.913 50.1389 698.944 52.1693 699.283 54.7495C699.333 55.1231 699.333 55.5682 699.333 56.4583" stroke="white" stroke-width="1.5"/>
<path d="M664.834 57.323C664.834 55.6314 664.834 54.7857 664.967 54.0812C665.552 50.9799 667.978 48.554 671.079 47.9689C671.784 47.8359 672.629 47.8359 674.321 47.8359C675.062 47.8359 675.433 47.8359 675.789 47.8692C677.324 48.0128 678.781 48.6161 679.968 49.6003C680.243 49.8285 680.505 50.0906 681.029 50.6146L682.084 51.6693C683.648 53.2328 684.429 54.0146 685.366 54.5355C685.88 54.8216 686.425 55.0476 686.991 55.2089C688.022 55.5026 689.127 55.5026 691.338 55.5026H692.055C697.1 55.5026 699.623 55.5026 701.262 56.9774C701.413 57.1131 701.557 57.2566 701.693 57.4074C703.167 59.0472 703.167 61.5699 703.167 66.6153V70.8359C703.167 78.0641 703.167 81.6782 700.922 83.9238C698.676 86.1693 695.062 86.1693 687.834 86.1693H680.167C672.939 86.1693 669.325 86.1693 667.079 83.9238C664.834 81.6782 664.834 78.0641 664.834 70.8359V57.323Z" fill="white" stroke="white" stroke-width="1.5"/>
<defs>
<filter id="filter0_d_4567_49958" x="192.812" y="194.363" width="141.395" height="48.3789" filterUnits="userSpaceOnUse" color-interpolation-filters="sRGB">
<feFlood flood-opacity="0" result="BackgroundImageFix"/>
<feColorMatrix in="SourceAlpha" type="matrix" values="0 0 0 0 0 0 0 0 0 0 0 0 0 0 0 0 0 0 127 0" result="hardAlpha"/>
<feOffset dy="-2"/>
<feComposite in2="hardAlpha" operator="out"/>
<feColorMatrix type="matrix" values="0 0 0 0 0.73265 0 0 0 0 0.00157405 0 0 0 0 0.148654 0 0 0 1 0"/>
<feBlend mode="normal" in2="BackgroundImageFix" result="effect1_dropShadow_4567_49958"/>
<feBlend mode="normal" in="SourceGraphic" in2="effect1_dropShadow_4567_49958" result="shape"/>
</filter>
<filter id="filter1_d_4567_49958" x="431.813" y="213.801" width="141.583" height="48.3789" filterUnits="userSpaceOnUse" color-interpolation-filters="sRGB">
<feFlood flood-opacity="0" result="BackgroundImageFix"/>
<feColorMatrix in="SourceAlpha" type="matrix" values="0 0 0 0 0 0 0 0 0 0 0 0 0 0 0 0 0 0 127 0" result="hardAlpha"/>
<feOffset dy="-2"/>
<feComposite in2="hardAlpha" operator="out"/>
<feColorMatrix type="matrix" values="0 0 0 0 0.164706 0 0 0 0 0.443137 0 0 0 0 0.282353 0 0 0 1 0"/>
<feBlend mode="normal" in2="BackgroundImageFix" result="effect1_dropShadow_4567_49958"/>
<feBlend mode="normal" in="SourceGraphic" in2="effect1_dropShadow_4567_49958" result="shape"/>
</filter>
<clipPath id="clip0_4567_49958">
<rect x="75" y="288" width="47" height="47" fill="white"/>
</clipPath>
</defs>
</svg>
